<?xml version="1.0" encoding="UTF-8" standalone="no"?>
<svg
   xmlns:osb="http://www.openswatchbook.org/uri/2009/osb"
   xmlns:dc="http://purl.org/dc/elements/1.1/"
   xmlns:cc="http://creativecommons.org/ns#"
   xmlns:rdf="http://www.w3.org/1999/02/22-rdf-syntax-ns#"
   xmlns:svg="http://www.w3.org/2000/svg"
   xmlns="http://www.w3.org/2000/svg"
   xmlns:sodipodi="http://sodipodi.sourceforge.net/DTD/sodipodi-0.dtd"
   xmlns:inkscape="http://www.inkscape.org/namespaces/inkscape"
   width="200"
   height="200"
   fill="#ffffff"
   viewBox="0 0 100 100"
   x="0px"
   y="0px"
   id="svg4566"
   version="1.1"
   inkscape:version="0.91 r13725"
   sodipodi:docname="emotions-multicolor.svg"
   inkscape:export-filename="/Users/sean/dev/pwa01/imgs/emotions-multicolor-512.png"
   inkscape:export-xdpi="209.45"
   inkscape:export-ydpi="209.45">
  <metadata
     id="metadata4604">
    <rdf:RDF>
      <cc:Work
         rdf:about="">
        <dc:format>image/svg+xml</dc:format>
        <dc:type
           rdf:resource="http://purl.org/dc/dcmitype/StillImage" />
        <dc:title />
      </cc:Work>
    </rdf:RDF>
  </metadata>
  <defs
     id="defs4602">
    <linearGradient
       id="linearGradient4626"
       osb:paint="solid">
      <stop
         style="stop-color:#ffffff;stop-opacity:1;"
         offset="0"
         id="stop4628" />
    </linearGradient>
  </defs>
  <sodipodi:namedview
     pagecolor="#ffffff"
     bordercolor="#666666"
     borderopacity="1"
     objecttolerance="10"
     gridtolerance="10"
     guidetolerance="10"
     inkscape:pageopacity="0"
     inkscape:pageshadow="2"
     inkscape:window-width="1268"
     inkscape:window-height="746"
     id="namedview4600"
     showgrid="false"
     inkscape:zoom="1.9551503"
     inkscape:cx="-36.306657"
     inkscape:cy="100"
     inkscape:window-x="3"
     inkscape:window-y="0"
     inkscape:window-maximized="0"
     inkscape:current-layer="layer2" />
  <g
     inkscape:groupmode="layer"
     id="layer1"
     inkscape:label="background"
     style="display:inline">
    <rect
       style="opacity:1;fill:#1a1a1a;fill-opacity:1;stroke:#1a1a1a;stroke-width:27.47277832;stroke-linecap:round;stroke-linejoin:round;stroke-miterlimit:4;stroke-dasharray:none;stroke-dashoffset:0;stroke-opacity:1"
       id="rect4624"
       width="82.527222"
       height="82.527222"
       x="8.7363892"
       y="8.7363892"
       inkscape:export-xdpi="299.85999"
       inkscape:export-ydpi="299.85999" />
  </g>
  <g
     inkscape:groupmode="layer"
     id="layer2"
     inkscape:label="faces"
     style="display:inline">
    <g
       id="g4153">
      <path
         inkscape:connector-curvature="0"
         id="path4568"
         d="M 26.315789,5 C 14.557711,5 4.9999998,14.557711 4.9999998,26.31579 c 0,11.758078 9.5577112,21.315789 21.3157892,21.315789 11.75808,0 21.315791,-9.557711 21.315791,-21.315789 C 47.63158,14.557711 38.073869,5 26.315789,5 Z m 0,2.605263 c 10.358343,0 18.710527,8.352185 18.710527,18.710527 0,10.358341 -8.352156,18.710526 -18.710498,18.710526 -10.358341,0 -18.710555,-8.352185 -18.710555,-18.710526 0,-10.358342 8.352186,-18.710527 18.710526,-18.710527 z"
         style="color:#000000;fill:#00ff00"
         class="smile face" />
      <path
         inkscape:connector-curvature="0"
         id="path4570"
         d="m 36.514803,33.125 c 0.725669,-1.10592 -0.05956,-2.156329 -1.050986,-2.116776 -0.452704,0.01805 -0.847173,0.322527 -1.095395,0.695723 -1.809871,2.721103 -4.934944,4.085527 -8.052632,4.085527 -3.117687,0 -6.24276,-1.364424 -8.052632,-4.085527 -0.248222,-0.373196 -0.642691,-0.677662 -1.095394,-0.695723 -0.991431,-0.03955 -1.776655,1.010856 -1.050986,2.116776 2.316971,3.531074 6.271493,5.269737 10.199012,5.269737 3.92752,0 7.882042,-1.738663 10.199013,-5.269737 z"
         style="color:#000000;fill:#00ff00"
         class="smile mouth" />
      <path
         inkscape:connector-curvature="0"
         id="path4572"
         d="m 73.68421,5 c -11.758078,0 -21.315789,9.557711 -21.315789,21.31579 0,11.758078 9.557711,21.315789 21.315789,21.315789 C 85.442289,47.631579 95,38.073868 95,26.31579 95,14.557711 85.442289,5 73.68421,5 Z m 0,2.586259 c 10.358342,0 18.729531,8.371189 18.729531,18.729531 0,10.358341 -8.371189,18.72953 -18.729531,18.72953 -10.358341,0 -18.72953,-8.371189 -18.72953,-18.72953 0,-10.358342 8.371189,-18.729531 18.72953,-18.729531 z"
         style="color:#000000;fill:#ffff00"
         class="flat face" />
      <path
         inkscape:connector-curvature="0"
         id="path4574"
         d="m 66.445724,32.047368 c -0.662666,0 -1.287829,0.666053 -1.287829,1.468398 0,0.802345 0.595961,1.468397 1.287829,1.468397 l 14.476973,0 c 0.691873,0 1.287829,-0.666052 1.287829,-1.468397 0,-0.802345 -0.625164,-1.468398 -1.287829,-1.468398 z"
         style="color:#000000;fill:#ffff00"
         class="flat mouth" />
      <path
         inkscape:connector-curvature="0"
         id="path4576"
         d="m 26.315788,52.368421 c -11.758077,0 -21.3157882,9.55771 -21.3157882,21.31579 C 4.9999998,85.442291 14.557711,95 26.315788,95 c 11.758079,0 21.31579,-9.557709 21.31579,-21.315789 0,-11.75808 -9.557711,-21.31579 -21.31579,-21.31579 z m 0,2.58626 c 10.358344,0 18.729529,8.371187 18.729529,18.72953 0,10.358341 -8.371185,18.729528 -18.729529,18.729528 -10.358339,0 -18.7295282,-8.371187 -18.7295282,-18.729528 0,-10.358343 8.3711892,-18.72953 18.7295282,-18.72953 z"
         style="color:#000000;fill:#ff7f00"
         class="wave face" />
      <path
         inkscape:connector-curvature="0"
         id="path4578"
         d="m 16.026944,82.414329 c 0.417193,0.5412 1.30967,0.493048 1.858234,0.01007 1.399207,-1.231915 2.641121,-1.912078 3.82887,-2.09801 1.18775,-0.185933 2.389849,0.115793 3.93377,1.101455 1.871448,1.194755 3.80982,1.777354 5.769529,1.573508 1.959711,-0.203846 3.829233,-1.18578 5.76953,-2.884765 0.638925,-0.559462 0.669344,-1.327904 0.217473,-1.840504 -0.490082,-0.555944 -1.24312,-0.522692 -1.843431,0.0047 -1.709117,1.501511 -3.112038,2.173236 -4.405823,2.307812 -1.293784,0.134575 -2.567152,-0.252401 -4.143571,-1.258807 -1.903944,-1.215503 -3.835412,-1.702505 -5.664629,-1.416142 -1.829217,0.286365 -3.486732,1.272449 -4.57308,2.224166 -1.086347,0.951717 -1.192545,1.698379 -0.746872,2.276527 z"
         style="color:#000000;fill:#ff7f00"
         class="wave mouth" />
      <path
         inkscape:connector-curvature="0"
         id="path4580"
         d="m 19.423685,65.394737 c -1.228579,0 -2.250001,1.021405 -2.250001,2.250001 0,1.228594 1.021422,2.249999 2.250001,2.249999 1.228577,0 2.249999,-1.021405 2.249999,-2.249999 0,-1.228596 -1.021422,-2.250001 -2.249999,-2.250001 z"
         style="color:#000000;fill:#ff7f00"
         class="wave left-eye" />
      <path
         inkscape:connector-curvature="0"
         id="path4582"
         d="m 33.207896,65.394737 c -1.228575,0 -2.250001,1.021405 -2.250001,2.250001 0,1.228594 1.021426,2.249999 2.250001,2.249999 1.228575,0 2.249999,-1.021405 2.249999,-2.249999 0,-1.228596 -1.021424,-2.250001 -2.249999,-2.250001 z"
         style="color:#000000;fill:#ff7f00"
         class="wave right-eye" />
      <path
         inkscape:connector-curvature="0"
         id="path4584"
         d="m 73.68421,52.368422 c -11.758078,0 -21.315789,9.557709 -21.315789,21.315789 C 52.368421,85.44229 61.926132,95 73.68421,95 85.442289,95 95,85.44229 95,73.684211 95,61.926131 85.442289,52.368422 73.68421,52.368422 Z m 0,2.58626 c 10.358342,0 18.729531,8.371187 18.729531,18.729529 0,10.358342 -8.371189,18.729529 -18.729531,18.729529 -10.358341,0 -18.72953,-8.371187 -18.72953,-18.729529 0,-10.358342 8.371189,-18.729529 18.72953,-18.729529 z"
         style="color:#000000;fill:#ff0000"
         class="frown face" />
      <path
         inkscape:connector-curvature="0"
         id="path4586"
         d="m 73.68421,76.865457 c -3.927519,0.0077 -7.871258,1.800335 -10.199013,5.41708 -0.455144,0.707182 -0.377716,1.608026 0.266448,1.97536 0.68238,0.389127 1.460359,0.112788 1.879934,-0.531828 1.815579,-2.789332 4.934946,-4.178584 8.052631,-4.186283 3.11769,-0.0077 6.237057,1.381676 8.052632,4.171008 0.41958,0.644615 1.197554,0.936151 1.879934,0.547023 0.644163,-0.367333 0.721596,-1.283369 0.266447,-1.990554 C 81.555468,78.650516 77.61173,76.857758 73.68421,76.865457 Z"
         style="color:#000000;fill:#ff0000"
         class="frown mouth" />
      <path
         inkscape:connector-curvature="0"
         id="path4588"
         d="m 66.792105,65.394737 c -1.228576,0 -2.25,1.021405 -2.25,2.250001 0,1.228593 1.021424,2.249999 2.25,2.249999 1.228576,0 2.25,-1.021406 2.25,-2.249999 0,-1.228596 -1.021424,-2.250001 -2.25,-2.250001 z"
         style="color:#000000;fill:#ff0000"
         class="frown left-eye" />
      <path
         inkscape:connector-curvature="0"
         id="path4590"
         d="m 80.576316,65.394737 c -1.228576,0 -2.25,1.021405 -2.25,2.250001 0,1.228593 1.021424,2.249999 2.25,2.249999 1.228575,0 2.25,-1.021406 2.25,-2.249999 0,-1.228596 -1.021425,-2.250001 -2.25,-2.250001 z"
         style="color:#000000;fill:#ff0000"
         class="frown right-eye" />
      <path
         inkscape:connector-curvature="0"
         id="path4592"
         d="m 19.423685,18.026316 c -1.228579,0 -2.250001,1.021405 -2.250001,2.25 0,1.228595 1.021422,2.25 2.250001,2.25 1.228577,0 2.249999,-1.021405 2.249999,-2.25 0,-1.228595 -1.021422,-2.25 -2.249999,-2.25 z"
         style="color:#000000;fill:#00ff00"
         class="smile left-eye" />
      <path
         inkscape:connector-curvature="0"
         id="path4594"
         d="m 33.207896,18.026316 c -1.228575,0 -2.250001,1.021405 -2.250001,2.25 0,1.228595 1.021426,2.25 2.250001,2.25 1.228575,0 2.249999,-1.021405 2.249999,-2.25 0,-1.228595 -1.021424,-2.25 -2.249999,-2.25 z"
         style="color:#000000;fill:#00ff00"
         class="smile right-eye" />
      <path
         inkscape:connector-curvature="0"
         id="path4596"
         d="m 66.792105,18.026316 c -1.228576,0 -2.25,1.021405 -2.25,2.25 0,1.228595 1.021424,2.25 2.25,2.25 1.228576,0 2.25,-1.021405 2.25,-2.25 0,-1.228595 -1.021424,-2.25 -2.25,-2.25 z"
         style="color:#000000;fill:#ffff00"
         class="flat left-eye" />
      <path
         inkscape:connector-curvature="0"
         id="path4598"
         d="m 80.576316,18.026316 c -1.228576,0 -2.25,1.021405 -2.25,2.25 0,1.228595 1.021424,2.25 2.25,2.25 1.228575,0 2.25,-1.021405 2.25,-2.25 0,-1.228595 -1.021425,-2.25 -2.25,-2.25 z"
         style="color:#000000;fill:#ffff00"
         class="flat right-eye" />
    </g>
  </g>
</svg>
